<?xml version="1.0" standalone="no"?>
<!DOCTYPE svg PUBLIC "-//W3C//DTD SVG 20010904//EN"
 "http://www.w3.org/TR/2001/REC-SVG-20010904/DTD/svg10.dtd">
<svg version="1.0" xmlns="http://www.w3.org/2000/svg"
 width="1000.000000pt" height="1000.000000pt" viewBox="0 0 1000.000000 1000.000000"
 preserveAspectRatio="xMidYMid meet">
<metadata>
Created by potrace 1.11, written by Peter Selinger 2001-2013
</metadata>
<g transform="translate(0.000000,1000.000000) scale(0.100000,-0.100000)"
fill="#000000" stroke="none">
<path d="M748 9235 c-51 -74 -127 -185 -168 -245 -41 -61 -109 -159 -150 -219
-81 -118 -206 -299 -331 -481 -43 -63 -79 -117 -79 -120 0 -3 1524 -6 3386 -7
1862 -1 3388 -4 3391 -7 3 -3 -66 -130 -153 -283 -87 -152 -164 -289 -171
-303 -8 -14 -23 -41 -35 -60 -19 -33 -77 -134 -453 -795 -79 -137 -152 -266
-163 -285 -11 -19 -68 -120 -127 -225 -60 -104 -116 -203 -127 -220 -10 -16
-21 -37 -25 -45 -4 -8 -26 -46 -48 -85 -23 -38 -58 -99 -77 -135 -20 -36 -86
-152 -147 -259 -61 -106 -111 -197 -111 -201 0 -4 -7 -13 -15 -20 -8 -7 -15
-21 -15 -31 0 -16 116 -219 295 -514 57 -95 189 -318 195 -330 3 -5 12 -21 21
-35 9 -14 69 -114 134 -223 64 -109 121 -195 125 -190 5 4 19 28 33 53 14 25
73 131 132 235 59 105 119 210 133 235 13 25 44 79 67 120 124 217 255 451
255 455 0 3 11 22 24 43 22 34 128 222 191 337 15 28 56 100 90 160 35 61 134
236 220 390 87 154 300 532 473 840 174 308 334 594 357 635 23 41 55 98 70
125 16 28 39 67 52 87 12 21 23 39 23 41 0 3 55 101 225 402 34 61 93 166 132
235 38 69 81 145 95 170 14 25 56 99 93 165 65 116 225 400 346 613 33 57 59
105 59 107 0 2 -1829 3 -4064 4 l-4064 2 -94 -136z"/>
<path d="M9258 8612 c-53 -87 -281 -471 -308 -517 -9 -16 -54 -93 -100 -170
-162 -274 -243 -410 -259 -437 -48 -80 -116 -196 -132 -225 -10 -18 -29 -49
-42 -70 -22 -35 -156 -261 -183 -308 -6 -11 -98 -166 -204 -345 -106 -179
-201 -338 -210 -355 -10 -16 -74 -124 -142 -240 -118 -197 -395 -666 -726
-1225 -79 -135 -165 -278 -189 -319 -25 -41 -53 -88 -63 -105 -9 -17 -118
-200 -240 -406 -122 -206 -231 -390 -242 -409 -10 -18 -61 -103 -112 -190 -52
-86 -108 -181 -125 -211 -36 -62 -59 -96 -64 -89 -2 2 -54 94 -117 204 -62
110 -257 452 -433 760 -176 308 -329 576 -340 595 -82 146 -127 225 -182 320
-21 36 -49 85 -63 110 -14 25 -77 135 -140 245 -63 110 -125 218 -137 240 -11
22 -49 88 -83 146 -60 105 -90 157 -154 272 l-33 57 -752 -3 c-414 -2 -755 -6
-756 -8 -2 -2 66 -121 152 -264 86 -144 196 -328 245 -410 49 -83 157 -265
241 -405 83 -140 245 -412 360 -605 114 -192 242 -406 283 -475 41 -69 83
-138 92 -155 22 -38 157 -265 170 -285 5 -8 19 -31 30 -50 11 -19 25 -42 30
-50 5 -8 56 -94 113 -190 269 -453 495 -834 547 -920 103 -171 373 -625 384
-645 24 -44 399 -672 417 -697 10 -15 19 -30 19 -33 0 -3 12 -24 27 -46 l26
-40 30 47 c16 26 38 63 49 83 10 20 52 90 93 156 41 66 99 163 131 215 31 52
109 181 172 285 143 235 278 458 412 680 56 94 146 242 200 330 53 88 157 259
230 380 73 121 184 303 245 405 198 327 912 1506 1120 1850 78 129 188 312
245 405 57 94 186 307 288 475 102 168 250 413 330 545 80 132 170 281 199
330 30 50 128 212 219 360 91 149 167 276 170 282 5 11 -25 67 -145 268 -20
33 -36 62 -36 65 0 3 -8 16 -17 30 -15 24 -49 82 -126 215 -279 484 -353 610
-360 617 -4 4 -28 -27 -54 -70z"/>
<path d="M4 7731 c-2 -2 15 -38 38 -80 49 -90 80 -148 138 -256 23 -44 57
-107 75 -140 18 -33 54 -100 80 -150 26 -49 56 -103 65 -120 10 -16 41 -75 70
-130 29 -55 64 -120 78 -145 14 -25 41 -74 60 -110 33 -62 295 -551 370 -690
19 -36 42 -78 52 -95 10 -16 46 -84 80 -150 35 -66 66 -124 70 -130 4 -5 35
-64 70 -130 34 -66 70 -133 80 -150 17 -30 47 -84 135 -250 42 -78 146 -271
285 -530 287 -534 380 -707 380 -711 0 -2 10 -21 23 -42 13 -20 50 -86 81
-147 132 -249 159 -300 166 -310 4 -5 31 -55 60 -110 29 -55 65 -122 80 -150
29 -54 143 -266 218 -405 25 -47 87 -161 137 -255 51 -93 113 -208 137 -255
41 -76 201 -375 288 -535 35 -65 37 -68 220 -410 68 -126 141 -261 162 -300
21 -38 55 -103 75 -142 l38 -73 692 0 c381 0 693 2 693 4 0 3 -15 31 -34 63
-32 57 -66 117 -111 198 -12 22 -32 58 -44 80 -42 73 -208 369 -241 430 -18
33 -40 74 -50 90 -10 17 -30 53 -45 80 -15 28 -101 181 -190 340 -176 314
-176 314 -308 550 -50 88 -108 194 -130 235 -22 41 -48 87 -59 102 -10 14 -18
29 -18 32 0 2 -15 31 -34 63 -18 32 -47 83 -63 113 -26 48 -204 367 -288 515
-15 28 -41 75 -58 105 -16 30 -38 69 -47 85 -23 38 -243 432 -283 505 -16 30
-35 64 -42 75 -6 11 -27 47 -45 80 -18 33 -62 112 -98 175 -35 63 -79 142 -97
175 -18 33 -70 125 -115 205 -45 80 -94 168 -110 195 -15 28 -59 106 -97 175
-64 114 -84 151 -160 290 -14 25 -28 50 -33 55 -4 6 -21 35 -37 65 -28 51
-145 261 -190 340 -10 19 -50 91 -88 160 -37 69 -81 146 -97 173 -15 26 -28
49 -28 51 0 2 739 4 1643 5 903 1 1645 5 1648 9 4 4 19 30 34 57 15 28 75 136
133 240 57 105 116 210 129 235 14 25 35 63 48 85 12 22 36 65 52 95 17 30 39
71 50 90 18 33 37 67 116 210 17 30 38 69 47 85 57 102 100 182 100 187 0 6
-5950 5 -5956 -1z"/>
</g>
</svg>
