<?xml version="1.0" encoding="utf-8"?>
<!-- Generator: Adobe Illustrator 25.0.1, SVG Export Plug-In . SVG Version: 6.00 Build 0)  -->
<svg version="1.1" id="Layer_1" xmlns="http://www.w3.org/2000/svg" xmlns:xlink="http://www.w3.org/1999/xlink" x="0px" y="0px"
	 viewBox="0 0 815 157" style="enable-background:new 0 0 815 157;" xml:space="preserve">
<style type="text/css">
	.st0{fill:#FFFFFF;}
	.st1{fill:#07807B;}
	.st2{fill:#F2B716;}
	.st3{fill:#EEB51D;}
	.st4{fill:#546264;}
</style>
<g>
	<g>
		<polygon class="st1" points="-0.36,29.54 68.17,157 92.97,157 34.71,52.76 93.82,52.72 106.67,29.48 		"/>
		<polygon class="st1" points="104.83,156.47 48.5,61.87 75.6,61.74 105.93,114.87 166.65,12.34 179.1,33.78 		"/>
		<polygon class="st2" points="-0.07,21.79 121.87,21.85 91.62,74.97 105.43,98.22 160.6,0.25 14.77,0.17 		"/>
	</g>
	<g>
		<path class="st1" d="M261.83,41.24V14.13l-10.56,20.19h-4.33l-10.56-20.19v27.11h-7.97V0.29h8.54l12.12,23.3l12.24-23.3h8.49
			v40.95H261.83z"/>
		<path class="st1" d="M278.92,41.24V0.29h7.97v40.95H278.92z"/>
		<path class="st1" d="M296,41.24V0.29h14.89c3.35,0,6.28,0.54,8.81,1.61c2.52,1.08,4.63,2.54,6.32,4.38
			c1.69,1.85,2.96,4.01,3.81,6.49c0.85,2.48,1.27,5.13,1.27,7.93c0,3.11-0.47,5.93-1.41,8.45s-2.3,4.67-4.07,6.46
			c-1.77,1.79-3.9,3.17-6.38,4.15c-2.48,0.98-5.26,1.47-8.34,1.47H296z M323.08,20.71c0-1.96-0.27-3.77-0.81-5.42
			c-0.54-1.65-1.33-3.08-2.37-4.27c-1.04-1.19-2.32-2.11-3.84-2.77c-1.52-0.65-3.24-0.98-5.17-0.98h-6.93v26.99h6.93
			c1.96,0,3.7-0.35,5.23-1.04c1.52-0.69,2.79-1.65,3.81-2.85c1.02-1.21,1.8-2.65,2.34-4.3C322.81,24.42,323.08,22.63,323.08,20.71z"
			/>
		<path class="st1" d="M350.68,0.41h7.33l4.62,13.56l4.62-13.56h7.39l-6.99,18.63l5.2,13.09l11.6-31.84h8.66l-16.68,40.95h-6.7
			l-7.1-17.19l-7.1,17.19h-6.7L332.26,0.29h8.54l11.66,31.84l5.08-13.09L350.68,0.41z"/>
		<path class="st1" d="M426.36,34.26v6.98H397.9V0.29h27.94v6.98h-19.98v9.86h17.26v6.46h-17.26v10.67H426.36z"/>
		<path class="st1" d="M456.72,11.02c-0.27-0.27-0.76-0.64-1.47-1.1c-0.71-0.46-1.58-0.91-2.6-1.35c-1.02-0.44-2.13-0.82-3.32-1.13
			c-1.19-0.31-2.41-0.46-3.64-0.46c-2.19,0-3.83,0.41-4.91,1.21c-1.08,0.81-1.62,1.94-1.62,3.4c0,0.85,0.2,1.55,0.61,2.11
			c0.41,0.56,0.99,1.05,1.76,1.47c0.77,0.42,1.74,0.81,2.92,1.15c1.17,0.35,2.53,0.71,4.07,1.1c2,0.54,3.82,1.11,5.45,1.73
			c1.64,0.62,3.02,1.39,4.16,2.31c1.14,0.92,2.01,2.03,2.63,3.32c0.62,1.29,0.93,2.87,0.93,4.76c0,2.19-0.41,4.07-1.24,5.62
			c-0.83,1.56-1.94,2.82-3.35,3.78s-3.02,1.66-4.85,2.11c-1.83,0.44-3.74,0.66-5.75,0.66c-3.08,0-6.12-0.46-9.12-1.38
			c-3-0.92-5.69-2.23-8.08-3.92l3.52-6.86c0.35,0.35,0.97,0.8,1.88,1.35c0.9,0.56,1.97,1.12,3.2,1.67c1.23,0.56,2.6,1.03,4.1,1.41
			c1.5,0.39,3.04,0.58,4.62,0.58c4.39,0,6.58-1.4,6.58-4.21c0-0.88-0.25-1.63-0.75-2.25c-0.5-0.61-1.21-1.15-2.14-1.61
			c-0.93-0.46-2.04-0.89-3.35-1.27c-1.31-0.38-2.77-0.81-4.39-1.27c-1.96-0.54-3.67-1.13-5.11-1.76c-1.44-0.63-2.64-1.38-3.61-2.25
			c-0.96-0.87-1.69-1.87-2.17-3s-0.72-2.49-0.72-4.07c0-2.08,0.39-3.92,1.15-5.54c0.77-1.61,1.84-2.96,3.2-4.04
			c1.37-1.08,2.96-1.89,4.76-2.45S443.85,0,445.93,0c2.89,0,5.54,0.45,7.97,1.36c2.42,0.9,4.54,1.97,6.35,3.2L456.72,11.02z"/>
		<path class="st1" d="M498.64,7.27h-13.1v33.97h-7.91V7.27h-13.11V0.29h34.12V7.27z"/>
		<path class="st1" d="M518.11,41.24V0.29h7.97v40.95H518.11z"/>
		<path class="st1" d="M543.17,15v26.24h-7.97V0.29h6.18l21.36,26.88V0.35h7.97v40.89h-6.47L543.17,15z"/>
		<path class="st1" d="M604.24,11.02c-0.27-0.27-0.76-0.64-1.47-1.1c-0.71-0.46-1.58-0.91-2.6-1.35c-1.02-0.44-2.13-0.82-3.32-1.13
			c-1.19-0.31-2.41-0.46-3.64-0.46c-2.19,0-3.83,0.41-4.91,1.21c-1.08,0.81-1.62,1.94-1.62,3.4c0,0.85,0.2,1.55,0.61,2.11
			c0.41,0.56,0.99,1.05,1.76,1.47c0.77,0.42,1.74,0.81,2.92,1.15c1.17,0.35,2.53,0.71,4.07,1.1c2,0.54,3.82,1.11,5.45,1.73
			c1.64,0.62,3.02,1.39,4.16,2.31c1.14,0.92,2.01,2.03,2.63,3.32c0.62,1.29,0.93,2.87,0.93,4.76c0,2.19-0.41,4.07-1.24,5.62
			c-0.83,1.56-1.94,2.82-3.35,3.78s-3.02,1.66-4.85,2.11c-1.83,0.44-3.74,0.66-5.75,0.66c-3.08,0-6.12-0.46-9.12-1.38
			c-3-0.92-5.69-2.23-8.08-3.92l3.52-6.86c0.35,0.35,0.97,0.8,1.88,1.35c0.9,0.56,1.97,1.12,3.2,1.67c1.23,0.56,2.6,1.03,4.1,1.41
			c1.5,0.39,3.04,0.58,4.62,0.58c4.39,0,6.58-1.4,6.58-4.21c0-0.88-0.25-1.63-0.75-2.25c-0.5-0.61-1.21-1.15-2.14-1.61
			c-0.93-0.46-2.04-0.89-3.35-1.27c-1.31-0.38-2.77-0.81-4.39-1.27c-1.96-0.54-3.67-1.13-5.11-1.76c-1.44-0.63-2.64-1.38-3.61-2.25
			c-0.96-0.87-1.69-1.87-2.17-3c-0.48-1.13-0.72-2.49-0.72-4.07c0-2.08,0.39-3.92,1.15-5.54c0.77-1.61,1.84-2.96,3.2-4.04
			c1.37-1.08,2.96-1.89,4.76-2.45c1.81-0.56,3.75-0.84,5.83-0.84c2.89,0,5.54,0.45,7.97,1.36c2.42,0.9,4.54,1.97,6.35,3.2
			L604.24,11.02z"/>
		<path class="st1" d="M646.15,7.27h-13.1v33.97h-7.91V7.27h-13.11V0.29h34.12V7.27z"/>
		<path class="st1" d="M651.81,41.24V0.29h7.97v40.95H651.81z"/>
		<path class="st1" d="M699.55,7.27h-13.1v33.97h-7.91V7.27h-13.11V0.29h34.12V7.27z"/>
		<path class="st1" d="M722.53,34.49c1.88,0,3.47-0.38,4.76-1.15c1.29-0.77,2.33-1.77,3.12-3c0.79-1.23,1.34-2.64,1.67-4.24
			c0.32-1.59,0.49-3.24,0.49-4.93V0.29h7.91v20.88c0,2.81-0.34,5.44-1.01,7.9c-0.67,2.46-1.73,4.61-3.18,6.46
			c-1.44,1.84-3.3,3.31-5.57,4.38c-2.27,1.08-4.98,1.61-8.14,1.61c-3.27,0-6.05-0.57-8.34-1.7c-2.29-1.13-4.15-2.63-5.57-4.5
			c-1.42-1.86-2.45-4.03-3.09-6.49c-0.63-2.46-0.95-5.02-0.95-7.67V0.29h7.96v20.88c0,1.73,0.16,3.39,0.49,4.99
			c0.33,1.6,0.88,3.01,1.67,4.24c0.79,1.23,1.82,2.22,3.09,2.97C719.12,34.12,720.68,34.49,722.53,34.49z"/>
		<path class="st1" d="M779.74,7.27h-13.1v33.97h-7.91V7.27h-13.11V0.29h34.12V7.27z"/>
		<path class="st1" d="M813.86,34.26v6.98H785.4V0.29h27.94v6.98h-19.98v9.86h17.26v6.46h-17.26v10.67H813.86z"/>
		<path class="st1" d="M229.27,98.92V57.97h26.9v3.58h-22.86V76.6h19.28v3.34h-19.28v18.98H229.27z"/>
		<path class="st1" d="M280.13,99.21c-2.85,0-5.46-0.58-7.82-1.76c-2.37-1.17-4.4-2.73-6.09-4.67c-1.69-1.94-3-4.16-3.93-6.66
			s-1.39-5.06-1.39-7.67c0-2.73,0.49-5.34,1.47-7.84c0.98-2.5,2.34-4.71,4.07-6.63c1.73-1.92,3.77-3.45,6.12-4.58
			c2.35-1.13,4.89-1.7,7.62-1.7c2.85,0,5.45,0.61,7.82,1.82c2.37,1.21,4.39,2.8,6.06,4.76c1.67,1.96,2.97,4.18,3.9,6.66
			c0.92,2.48,1.39,5.01,1.39,7.58c0,2.73-0.49,5.35-1.47,7.84c-0.98,2.5-2.33,4.7-4.04,6.61c-1.71,1.9-3.74,3.42-6.09,4.56
			C285.4,98.64,282.86,99.21,280.13,99.21z M264.95,78.44c0,2.23,0.36,4.38,1.1,6.43c0.73,2.06,1.77,3.88,3.12,5.48
			c1.35,1.59,2.95,2.86,4.79,3.8c1.85,0.94,3.91,1.41,6.18,1.41c2.31,0,4.41-0.5,6.29-1.5c1.89-1,3.48-2.31,4.79-3.92
			c1.31-1.61,2.32-3.44,3.03-5.48c0.71-2.04,1.07-4.11,1.07-6.23c0-2.23-0.37-4.37-1.13-6.43c-0.75-2.06-1.8-3.87-3.15-5.45
			c-1.35-1.58-2.94-2.84-4.79-3.78c-1.85-0.94-3.89-1.41-6.12-1.41c-2.31,0-4.41,0.49-6.29,1.47c-1.89,0.98-3.48,2.28-4.79,3.89
			c-1.31,1.62-2.32,3.44-3.03,5.48C265.3,74.25,264.95,76.33,264.95,78.44z"/>
		<path class="st1" d="M308.24,98.92V57.97h17.32c1.77,0,3.4,0.37,4.88,1.12c1.48,0.75,2.76,1.73,3.84,2.94
			c1.08,1.21,1.91,2.59,2.51,4.12c0.6,1.54,0.89,3.09,0.89,4.67c0,1.5-0.22,2.93-0.66,4.3c-0.44,1.37-1.06,2.59-1.85,3.69
			c-0.79,1.09-1.74,2.02-2.86,2.77c-1.12,0.75-2.37,1.26-3.75,1.53l10.04,15.8h-4.56l-9.64-15.11h-12.12v15.11H308.24z
			 M312.29,80.23h13.39c1.19,0,2.28-0.26,3.26-0.78c0.98-0.52,1.82-1.22,2.51-2.11s1.23-1.88,1.62-3c0.38-1.11,0.58-2.29,0.58-3.52
			c0-1.23-0.22-2.41-0.66-3.55c-0.44-1.13-1.04-2.13-1.79-2.97c-0.75-0.84-1.64-1.52-2.66-2.02c-1.02-0.5-2.09-0.75-3.2-0.75h-13.05
			V80.23z"/>
		<path class="st1" d="M387.16,65.64c-1.15-1.31-2.7-2.37-4.62-3.17c-1.92-0.81-4.12-1.21-6.58-1.21c-3.62,0-6.26,0.68-7.91,2.05
			c-1.66,1.37-2.48,3.22-2.48,5.56c0,1.23,0.22,2.24,0.66,3.03c0.44,0.79,1.13,1.47,2.05,2.05c0.92,0.58,2.11,1.08,3.55,1.5
			c1.44,0.42,3.15,0.85,5.11,1.27c2.19,0.46,4.17,0.98,5.92,1.56c1.75,0.58,3.24,1.3,4.47,2.16c1.23,0.87,2.17,1.91,2.83,3.14
			c0.65,1.23,0.98,2.77,0.98,4.61c0,1.89-0.37,3.52-1.1,4.9c-0.73,1.39-1.75,2.54-3.06,3.46c-1.31,0.92-2.87,1.61-4.68,2.05
			c-1.81,0.44-3.79,0.66-5.95,0.66c-6.35,0-11.83-1.98-16.45-5.94l2.02-3.29c0.73,0.77,1.61,1.5,2.63,2.19
			c1.02,0.69,2.16,1.3,3.41,1.82c1.25,0.52,2.59,0.92,4.01,1.21c1.42,0.29,2.92,0.43,4.5,0.43c3.27,0,5.82-0.59,7.65-1.76
			c1.83-1.17,2.74-2.95,2.74-5.33c0-1.27-0.26-2.34-0.78-3.2c-0.52-0.87-1.3-1.62-2.34-2.25c-1.04-0.63-2.33-1.18-3.87-1.64
			c-1.54-0.46-3.33-0.92-5.37-1.39c-2.16-0.5-4.04-1.02-5.66-1.56c-1.62-0.54-2.98-1.21-4.1-2.02c-1.12-0.81-1.95-1.78-2.51-2.91
			c-0.56-1.13-0.84-2.53-0.84-4.18c0-1.88,0.36-3.57,1.07-5.05c0.71-1.48,1.72-2.71,3.03-3.69c1.31-0.98,2.85-1.73,4.62-2.25
			c1.77-0.52,3.73-0.78,5.89-0.78c2.73,0,5.17,0.42,7.3,1.24c2.14,0.83,4.07,1.99,5.8,3.49L387.16,65.64z"/>
		<path class="st1" d="M427.05,95.35v3.58h-27.54V57.97h27.02v3.58h-22.98v14.76h20.03v3.4h-20.03v15.63H427.05z"/>
		<path class="st1" d="M435.65,57.97l13.45,17.88l13.45-17.88H467l-15.76,20.76l15.3,20.19h-4.45l-12.99-17.3l-12.99,17.3h-4.56
			l15.3-20.19l-15.76-20.76H435.65z"/>
		<path class="st1" d="M490.32,95.57c2.58,0,4.72-0.49,6.44-1.47c1.71-0.98,3.08-2.27,4.1-3.87c1.02-1.59,1.73-3.41,2.14-5.45
			c0.4-2.04,0.6-4.09,0.6-6.17V57.97h4.04v20.65c0,2.77-0.31,5.39-0.93,7.87c-0.62,2.48-1.61,4.66-2.97,6.55
			c-1.37,1.88-3.15,3.38-5.34,4.5c-2.19,1.12-4.87,1.67-8.02,1.67c-3.23,0-5.96-0.58-8.17-1.76c-2.21-1.17-4-2.72-5.34-4.64
			c-1.35-1.92-2.31-4.11-2.89-6.58c-0.58-2.46-0.87-5-0.87-7.61V57.97h3.98v20.65c0,2.15,0.21,4.25,0.63,6.29
			c0.42,2.04,1.15,3.85,2.17,5.42c1.02,1.58,2.38,2.85,4.07,3.81C485.67,95.09,487.78,95.57,490.32,95.57z"/>
		<path class="st1" d="M529.52,57.97h3.41l17.03,40.95h-4.27l-5.31-12.8h-18.42l-5.25,12.8h-4.33L529.52,57.97z M539.45,82.94
			L531.2,62.7l-8.37,20.24H539.45z"/>
		<path class="st1" d="M557.11,98.92V57.97h4.04v37.38h23.67v3.58H557.11z"/>
		<path class="st1" d="M592.04,98.92V57.97h4.04v40.95H592.04z"/>
		<path class="st1" d="M636.72,61.54h-14.6v37.38h-4.04V61.54h-14.6v-3.58h33.25V61.54z"/>
		<path class="st1" d="M644.34,57.97L657.74,80l13.51-22.03h4.39l-15.88,25.72v15.23h-4.04V83.58L639.9,57.97H644.34z"/>
		<path class="st1" d="M707.91,57.97h3.41l17.03,40.95h-4.27l-5.31-12.8h-18.42l-5.25,12.8h-4.33L707.91,57.97z M717.84,82.94
			l-8.26-20.24l-8.37,20.24H717.84z"/>
		<path class="st1" d="M739.54,65.47v33.45h-4.04V57.97h3.12l27.13,34.09V58.03h4.04v40.89h-3.52L739.54,65.47z"/>
		<path class="st1" d="M781.34,98.92V57.97h13.91c3.27,0,6.13,0.54,8.57,1.61c2.44,1.08,4.48,2.54,6.12,4.38
			c1.64,1.85,2.87,4.01,3.69,6.49s1.24,5.13,1.24,7.93c0,3.11-0.46,5.93-1.38,8.45c-0.93,2.52-2.24,4.67-3.96,6.46
			c-1.71,1.79-3.77,3.17-6.18,4.15c-2.41,0.98-5.11,1.47-8.11,1.47H781.34z M810.84,78.39c0-2.46-0.35-4.72-1.04-6.78
			c-0.69-2.06-1.7-3.84-3.03-5.33c-1.33-1.5-2.96-2.66-4.88-3.49c-1.92-0.83-4.14-1.24-6.64-1.24h-9.87v33.8h9.87
			c2.54,0,4.78-0.43,6.73-1.3s3.57-2.06,4.88-3.58c1.31-1.52,2.3-3.31,2.97-5.37C810.5,83.05,810.84,80.81,810.84,78.39z"/>
		<path class="st1" d="M258.88,150.6c-3.81,4.19-8.2,6.29-13.16,6.29c-2.77,0-5.32-0.59-7.65-1.79c-2.33-1.19-4.35-2.77-6.06-4.73
			c-1.71-1.96-3.05-4.18-4.01-6.66c-0.96-2.48-1.44-5.03-1.44-7.64c0-2.73,0.47-5.35,1.41-7.85c0.94-2.5,2.26-4.7,3.95-6.6
			c1.69-1.9,3.7-3.42,6.01-4.56c2.31-1.13,4.83-1.7,7.56-1.7c2,0,3.83,0.22,5.48,0.66c1.66,0.44,3.13,1.06,4.42,1.85
			c1.29,0.79,2.4,1.73,3.35,2.83c0.94,1.09,1.74,2.3,2.4,3.6l-3.12,2.08c-1.35-2.54-3.1-4.4-5.25-5.59
			c-2.16-1.19-4.6-1.79-7.33-1.79c-2.27,0-4.32,0.48-6.15,1.44c-1.83,0.96-3.39,2.24-4.68,3.84c-1.29,1.59-2.28,3.42-2.97,5.48
			c-0.69,2.06-1.04,4.18-1.04,6.37c0,2.31,0.39,4.5,1.18,6.58c0.79,2.08,1.88,3.89,3.26,5.45c1.39,1.56,3.01,2.8,4.88,3.72
			c1.87,0.92,3.9,1.38,6.09,1.38c2.35,0,4.59-0.55,6.73-1.64c2.14-1.1,4.19-2.84,6.15-5.22v-6.81h-9.12v-3.11h12.53v20.13h-3.41
			V150.6z"/>
		<path class="st1" d="M301.6,153.02v3.58h-27.54v-40.95h27.02v3.58h-22.98v14.76h20.03v3.4h-20.03v15.63H301.6z"/>
		<path class="st1" d="M316.73,123.14v33.45h-4.04v-40.95h3.12l27.13,34.09V115.7h4.04v40.89h-3.52L316.73,123.14z"/>
		<path class="st1" d="M360.72,156.6v-40.95h13.91c3.27,0,6.13,0.54,8.57,1.61c2.44,1.08,4.48,2.54,6.12,4.38
			c1.63,1.85,2.87,4.01,3.69,6.49c0.83,2.48,1.24,5.13,1.24,7.93c0,3.11-0.46,5.93-1.39,8.45c-0.92,2.52-2.24,4.67-3.95,6.46
			c-1.71,1.79-3.77,3.17-6.18,4.15c-2.41,0.98-5.11,1.47-8.11,1.47H360.72z M390.22,136.06c0-2.46-0.35-4.72-1.04-6.78
			c-0.69-2.06-1.7-3.84-3.03-5.33c-1.33-1.5-2.95-2.66-4.88-3.49c-1.92-0.83-4.14-1.24-6.64-1.24h-9.87v33.8h9.87
			c2.54,0,4.78-0.43,6.73-1.3c1.94-0.87,3.57-2.06,4.88-3.58s2.3-3.31,2.97-5.37C389.88,140.73,390.22,138.49,390.22,136.06z"/>
		<path class="st1" d="M433,153.02v3.58h-27.54v-40.95h27.02v3.58H409.5v14.76h20.03v3.4H409.5v15.63H433z"/>
		<path class="st1" d="M444.08,156.6v-40.95h17.32c1.77,0,3.4,0.37,4.88,1.12c1.48,0.75,2.76,1.73,3.84,2.94
			c1.08,1.21,1.92,2.59,2.51,4.12c0.6,1.54,0.89,3.09,0.89,4.67c0,1.5-0.22,2.93-0.66,4.3c-0.44,1.37-1.06,2.59-1.85,3.69
			c-0.79,1.09-1.74,2.02-2.86,2.77c-1.12,0.75-2.37,1.26-3.75,1.53l10.04,15.8h-4.56l-9.64-15.11h-12.12v15.11H444.08z
			 M448.12,137.91h13.39c1.19,0,2.28-0.26,3.26-0.78s1.82-1.22,2.51-2.11s1.23-1.88,1.62-3c0.39-1.11,0.58-2.29,0.58-3.52
			c0-1.23-0.22-2.41-0.67-3.55c-0.44-1.13-1.04-2.13-1.79-2.97c-0.75-0.84-1.64-1.52-2.66-2.02c-1.02-0.5-2.09-0.75-3.2-0.75h-13.05
			V137.91z"/>
		<path class="st1" d="M503.43,156.6v-40.95h13.91c3.27,0,6.13,0.54,8.57,1.61s4.48,2.54,6.12,4.38c1.64,1.85,2.87,4.01,3.69,6.49
			c0.83,2.48,1.24,5.13,1.24,7.93c0,3.11-0.46,5.93-1.38,8.45c-0.93,2.52-2.24,4.67-3.96,6.46s-3.77,3.17-6.18,4.15
			c-2.41,0.98-5.11,1.47-8.11,1.47H503.43z M532.93,136.06c0-2.46-0.35-4.72-1.04-6.78c-0.69-2.06-1.7-3.84-3.03-5.33
			c-1.33-1.5-2.96-2.66-4.88-3.49c-1.92-0.83-4.14-1.24-6.64-1.24h-9.87v33.8h9.87c2.54,0,4.78-0.43,6.73-1.3
			c1.94-0.87,3.57-2.06,4.88-3.58c1.31-1.52,2.3-3.31,2.97-5.37C532.59,140.73,532.93,138.49,532.93,136.06z"/>
		<path class="st1" d="M548.17,156.6v-40.95h4.04v40.95H548.17z"/>
		<path class="st1" d="M565.78,115.65l14.66,35.93l14.6-35.93h4.22l-17.09,40.95h-3.52l-17.09-40.95H565.78z"/>
		<path class="st1" d="M636.15,153.02v3.58h-27.54v-40.95h27.02v3.58h-22.98v14.76h20.03v3.4h-20.03v15.63H636.15z"/>
		<path class="st1" d="M647.23,156.6v-40.95h17.32c1.77,0,3.4,0.37,4.88,1.12c1.48,0.75,2.76,1.73,3.84,2.94
			c1.08,1.21,1.92,2.59,2.51,4.12c0.6,1.54,0.89,3.09,0.89,4.67c0,1.5-0.22,2.93-0.66,4.3c-0.44,1.37-1.06,2.59-1.85,3.69
			c-0.79,1.09-1.74,2.02-2.86,2.77c-1.12,0.75-2.37,1.26-3.75,1.53l10.04,15.8h-4.56l-9.64-15.11h-12.12v15.11H647.23z
			 M651.27,137.91h13.39c1.19,0,2.28-0.26,3.26-0.78c0.98-0.52,1.82-1.22,2.51-2.11s1.23-1.88,1.62-3c0.39-1.11,0.58-2.29,0.58-3.52
			c0-1.23-0.22-2.41-0.67-3.55c-0.44-1.13-1.04-2.13-1.79-2.97c-0.75-0.84-1.64-1.52-2.66-2.02c-1.02-0.5-2.09-0.75-3.2-0.75h-13.05
			V137.91z"/>
		<path class="st1" d="M712.35,123.32c-1.15-1.31-2.69-2.37-4.62-3.17c-1.92-0.81-4.12-1.21-6.58-1.21c-3.62,0-6.25,0.68-7.91,2.05
			c-1.66,1.37-2.48,3.22-2.48,5.56c0,1.23,0.22,2.24,0.67,3.03s1.13,1.47,2.05,2.05c0.92,0.58,2.11,1.08,3.55,1.5
			c1.44,0.42,3.15,0.85,5.11,1.27c2.19,0.46,4.17,0.98,5.92,1.56c1.75,0.58,3.24,1.3,4.47,2.16c1.23,0.87,2.18,1.91,2.83,3.14
			c0.65,1.23,0.98,2.77,0.98,4.61c0,1.89-0.37,3.52-1.1,4.9c-0.73,1.39-1.75,2.54-3.06,3.46c-1.31,0.92-2.87,1.61-4.68,2.05
			c-1.81,0.44-3.79,0.66-5.95,0.66c-6.35,0-11.83-1.98-16.45-5.94l2.02-3.29c0.73,0.77,1.6,1.5,2.63,2.19
			c1.02,0.69,2.16,1.3,3.41,1.82c1.25,0.52,2.59,0.92,4.01,1.21c1.42,0.29,2.92,0.43,4.5,0.43c3.27,0,5.82-0.59,7.65-1.76
			c1.83-1.17,2.74-2.95,2.74-5.33c0-1.27-0.26-2.34-0.78-3.2c-0.52-0.87-1.3-1.62-2.34-2.25c-1.04-0.63-2.33-1.18-3.87-1.64
			c-1.54-0.46-3.33-0.92-5.37-1.39c-2.16-0.5-4.04-1.02-5.66-1.56c-1.62-0.54-2.98-1.21-4.1-2.02c-1.12-0.81-1.95-1.78-2.51-2.91
			s-0.84-2.53-0.84-4.18c0-1.88,0.36-3.57,1.07-5.05c0.71-1.48,1.72-2.71,3.03-3.69c1.31-0.98,2.85-1.73,4.62-2.25
			c1.77-0.52,3.73-0.78,5.89-0.78c2.73,0,5.17,0.42,7.3,1.24c2.14,0.83,4.07,1.99,5.8,3.49L712.35,123.32z"/>
		<path class="st1" d="M726.9,156.6v-40.95h4.04v40.95H726.9z"/>
		<path class="st1" d="M773.77,119.22h-14.6v37.38h-4.04v-37.38h-14.6v-3.58h33.25V119.22z"/>
		<path class="st1" d="M783.58,115.65l13.39,22.03l13.51-22.03h4.39L799,141.37v15.23h-4.04v-15.34l-15.82-25.61H783.58z"/>
	</g>
</g>
</svg>
